<svg width="410" height="80" viewBox="0 0 410 80" fill="none" xmlns="http://www.w3.org/2000/svg">
<path d="M68 46.0008C68 27.2232 52.7777 12.0009 34 12.0009C15.2223 12.0009 0 27.2232 0 46.0008C0 64.7784 15.2223 80.0007 34 80.0007C43.2975 80.0007 51.7233 76.2689 57.8613 70.2214C56.2974 67.8925 54.9527 65.4042 53.8566 62.786C49.0873 68.4223 41.9616 72.0007 34 72.0007C19.6406 72.0007 8 60.3602 8 46.0008C8 31.6415 19.6406 20.0009 34 20.0009C48.3594 20.0009 60 31.6415 60 46.0008C60 61.4317 70.2797 74.4616 84.3646 78.6161L86.6317 70.9419C75.8609 67.7649 68 57.8009 68 46.0008Z" fill="#F6AF33"/>
<path fill-rule="evenodd" clip-rule="evenodd" d="M94 64.0002C103.941 64.0002 112 55.9414 112 46.0003C112 36.0592 103.941 28.0004 94 28.0004C84.0589 28.0004 76 36.0592 76 46.0003C76 55.9414 84.0589 64.0002 94 64.0002ZM94.0002 52.0003C97.3139 52.0003 100 49.314 100 46.0003C100 42.6866 97.3139 40.0003 94.0002 40.0003C90.6865 40.0003 88.0002 42.6866 88.0002 46.0003C88.0002 49.314 90.6865 52.0003 94.0002 52.0003Z" fill="white"/>
<path d="M127.84 49.3242C127.958 48.1062 128.012 46.8696 127.998 45.618C127.983 44.3664 127.902 43.1314 127.756 41.9163L119.814 42.8773C119.925 43.8064 119.987 44.7509 119.998 45.708C120.009 46.6651 119.968 47.6107 119.877 48.5421L127.84 49.3242Z" fill="white"/>
<path d="M124.004 62.0163C124.579 60.9361 125.102 59.8143 125.568 58.6525C126.034 57.4908 126.431 56.3186 126.761 55.1403L119.055 52.9888C118.803 53.8898 118.499 54.7862 118.143 55.6746C117.786 56.5629 117.386 57.4209 116.947 58.2468L124.004 62.0163Z" fill="white"/>
<path d="M115.578 72.2792C116.523 71.5014 117.435 70.665 118.31 69.7701C119.185 68.8751 120.001 67.9441 120.757 66.9821L114.461 62.0452C113.883 62.7809 113.259 63.4928 112.59 64.1772C111.921 64.8616 111.223 65.5012 110.501 66.0959L115.578 72.2792Z" fill="white"/>
<path d="M103.895 78.5542C105.064 78.1928 106.225 77.765 107.374 77.2687C108.523 76.7725 109.631 76.2204 110.696 75.6171L106.743 68.6613C105.929 69.1227 105.081 69.5448 104.203 69.9243C103.324 70.3038 102.436 70.631 101.542 70.9073L103.895 78.5542Z" fill="white"/>
<path d="M90.5422 79.8272C91.7598 79.95 92.9962 80.0086 94.2478 79.9993C95.4995 79.9901 96.7348 79.9133 97.9504 79.7725L97.0201 71.8261C96.0906 71.9338 95.1459 71.9925 94.1887 71.9996C93.2316 72.0066 92.2861 71.9619 91.3551 71.868L90.5422 79.8272Z" fill="white"/>
<path d="M72.6044 19.5742C71.6539 20.3451 70.7355 21.1748 69.8539 22.0634C68.9724 22.952 68.15 23.877 67.3867 24.8335L73.6466 29.816C74.2302 29.0845 74.8591 28.3772 75.5332 27.6977C76.2074 27.0182 76.9097 26.3837 77.6365 25.7942L72.6044 19.5742Z" fill="white"/>
<path d="M84.3709 13.3789C83.1977 13.7271 82.0316 14.1419 80.877 14.6252C79.7224 15.1085 78.6085 15.6481 77.5371 16.2395L81.412 23.2392C82.2313 22.7869 83.0831 22.3743 83.966 22.0047C84.849 21.6351 85.7408 21.3179 86.6379 21.0516L84.3709 13.3789Z" fill="white"/>
<path d="M97.7231 12.2011C96.5065 12.0689 95.2706 12.0008 94.0189 12.0004C92.7673 12 91.5314 12.0672 90.3147 12.1986L91.1836 20.1519C92.114 20.0515 93.0591 20.0001 94.0162 20.0004C94.9734 20.0007 95.9185 20.0527 96.8488 20.1539L97.7231 12.2011Z" fill="white"/>
<path d="M110.312 16.1618C109.238 15.5745 108.122 15.0392 106.966 14.5602C105.809 14.0813 104.642 13.6709 103.467 13.3272L101.229 21.0086C102.127 21.2714 103.02 21.5852 103.905 21.9515C104.789 22.3177 105.642 22.7271 106.463 23.1762L110.312 16.1618Z" fill="white"/>
<path d="M120.499 24.697C119.732 23.7438 118.906 22.8223 118.02 21.9376C117.135 21.0528 116.213 20.227 115.259 19.4603L110.254 25.702C110.983 26.2883 111.688 26.9198 112.365 27.5963C113.042 28.2729 113.674 28.9776 114.261 29.7065L120.499 24.697Z" fill="white"/>
<path d="M126.656 36.491C126.312 35.3166 125.902 34.1489 125.423 32.9925C124.944 31.8361 124.408 30.7202 123.821 29.6466L116.807 33.4953C117.256 34.3163 117.665 35.1696 118.032 36.0539C118.398 36.9382 118.712 37.8312 118.975 38.7293L126.656 36.491Z" fill="white"/>
<path d="M247.406 62.4813H253.153V49.4189H256.074C259.371 49.5132 260.879 50.8336 261.774 54.9834C262.669 58.9445 263.422 61.5381 263.894 62.4813H269.876C269.217 61.2552 268.369 57.577 267.379 53.6158C266.579 50.5506 265.213 48.3343 262.951 47.4854V47.344C265.919 46.2594 268.698 43.4771 268.698 39.3745C268.698 36.6865 267.709 34.4702 265.966 33.0083C263.846 31.2164 260.737 30.4619 256.168 30.4619C252.823 30.4619 249.573 30.7448 247.406 31.1221V62.4813ZM253.153 35.1304C253.719 34.9889 254.896 34.8474 256.733 34.8474C260.502 34.8474 262.951 36.4508 262.951 39.9404C262.951 43.0999 260.502 45.1748 256.592 45.1748H253.153V35.1304Z" fill="white"/>
<path d="M293.583 52.6255C293.677 52.1068 293.772 51.258 293.772 50.1734C293.772 45.1276 291.369 38.9972 283.879 38.9972C276.531 38.9972 272.668 44.9861 272.668 51.3523C272.668 58.3786 277.049 63 284.492 63C287.789 63 290.521 62.3398 292.5 61.5381L291.652 57.5298C289.909 58.19 287.977 58.5673 285.292 58.5673C281.618 58.5673 278.368 56.7753 278.226 52.6255H293.583ZM278.226 48.57C278.462 46.2122 279.969 42.9584 283.549 42.9584C287.412 42.9584 288.354 46.448 288.307 48.57H278.226Z" fill="white"/>
<path d="M299.407 35.2718V39.516H296.109V43.8544H299.407V54.6533C299.407 57.6713 299.972 59.7462 301.197 61.0666C302.28 62.2455 304.07 63 306.19 63C308.027 63 309.535 62.7171 310.382 62.387L310.288 57.9542C309.629 58.1429 309.111 58.2372 308.027 58.2372C305.813 58.2372 305.059 56.7753 305.059 53.9931V43.8544H310.571V39.516H305.059V33.6214L299.407 35.2718Z" fill="white"/>
<path d="M325.067 38.9972C318.142 38.9972 313.196 43.6186 313.196 51.1637C313.196 58.5201 318.189 63 324.69 63C330.531 63 336.467 59.2275 336.467 50.7864C336.467 43.8072 331.897 38.9972 325.067 38.9972ZM324.926 43.2413C328.882 43.2413 330.484 47.344 330.484 50.9279C330.484 55.5492 328.176 58.8031 324.878 58.8031C321.345 58.8031 319.179 55.4549 319.179 51.0222C319.179 47.2025 320.827 43.2413 324.926 43.2413Z" fill="white"/>
<path d="M361.784 39.516H355.99V53.38C355.99 54.0402 355.849 54.6533 355.66 55.172C355.048 56.6338 353.54 58.2843 351.232 58.2843C348.17 58.2843 346.946 55.8322 346.946 52.0125V39.516H341.151V53.0028C341.151 60.5007 344.967 63 349.16 63C353.258 63 355.519 60.6422 356.508 58.9917H356.602L356.885 62.4813H361.973C361.878 60.595 361.784 58.3315 361.784 55.5964V39.516Z" fill="white"/>
<path d="M384.128 57.4827C382.998 57.9542 381.585 58.3786 379.559 58.3786C375.602 58.3786 372.54 55.6907 372.54 50.975C372.493 46.7781 375.131 43.5243 379.559 43.5243C381.632 43.5243 382.998 43.9958 383.94 44.4202L384.976 40.0818C383.657 39.4688 381.49 38.9972 379.371 38.9972C371.315 38.9972 366.605 44.3731 366.605 51.258C366.605 58.3786 371.268 63 378.429 63C381.302 63 383.704 62.3398 384.929 61.7739L384.128 57.4827Z" fill="white"/>
<path d="M389.226 62.4813H395.067V48.7587C395.067 48.0985 395.115 47.4854 395.303 47.0139C395.915 45.2691 397.517 43.7601 399.778 43.7601C402.981 43.7601 404.206 46.2594 404.206 49.6075V62.4813H410V48.9473C410 41.5908 405.902 38.9972 401.992 38.9972C400.532 38.9972 399.166 39.3745 398.035 40.0347C396.857 40.6477 395.868 41.5908 395.162 42.6755H395.067V29H389.226V62.4813Z" fill="white"/>
<path d="M171.408 48.6643C171.408 43.6657 169.288 38.9972 161.939 38.9972C158.312 38.9972 155.345 39.9875 153.649 41.0249L154.779 44.7975C156.334 43.8072 158.689 43.0998 160.95 43.0998C165.001 43.0998 165.614 45.5991 165.614 47.1082V47.4854C157.135 47.4383 152 50.362 152 56.1623C152 59.6519 154.591 63 159.207 63C162.175 63 164.577 61.7267 165.991 59.9348H166.132L166.509 62.4813H171.738C171.502 61.0666 171.408 59.0388 171.408 56.9639V48.6643ZM165.755 54.4175C165.755 54.7947 165.708 55.2663 165.567 55.6907C165.048 57.3412 163.353 58.8502 161.044 58.8502C159.207 58.8502 157.747 57.8127 157.747 55.5492C157.747 52.0596 161.657 51.1636 165.755 51.258V54.4175Z" fill="#F6AF33"/>
<path d="M198.061 39.5159H192.267V53.38C192.267 54.0402 192.126 54.6532 191.937 55.172C191.325 56.6338 189.818 58.2843 187.509 58.2843C184.448 58.2843 183.223 55.8322 183.223 52.0125V39.5159H177.429V53.0028C177.429 60.5007 181.244 63 185.437 63C189.535 63 191.796 60.6421 192.785 58.9917H192.88L193.162 62.4813H198.25C198.156 60.595 198.061 58.3315 198.061 55.5964V39.5159Z" fill="#F6AF33"/>
<path d="M205.332 35.2718V39.5159H202.034V43.8543H205.332V54.6532C205.332 57.6713 205.897 59.7462 207.122 61.0666C208.205 62.2455 209.995 63 212.115 63C213.952 63 215.459 62.717 216.307 62.3869L216.213 57.9542C215.554 58.1428 215.035 58.2372 213.952 58.2372C211.738 58.2372 210.984 56.7753 210.984 53.993V43.8543H216.496V39.5159H210.984V33.6213L205.332 35.2718Z" fill="#F6AF33"/>
<path d="M230.992 38.9972C224.067 38.9972 219.121 43.6186 219.121 51.1636C219.121 58.5201 224.114 63 230.615 63C236.456 63 242.391 59.2274 242.391 50.7864C242.391 43.8072 237.822 38.9972 230.992 38.9972ZM230.85 43.2413C234.807 43.2413 236.409 47.3439 236.409 50.9279C236.409 55.5492 234.101 58.803 230.803 58.803C227.27 58.803 225.103 55.4549 225.103 51.0222C225.103 47.2025 226.752 43.2413 230.85 43.2413Z" fill="#F6AF33"/>
</svg>
