<svg width="20" height="20" fill="none" version="1.1" viewBox="0 0 20 20" xmlns="http://www.w3.org/2000/svg">
 <path id="path3823" d="m10.518 10.024c0-2.4297-1.9697-4.3994-4.3994-4.3994-2.4297 0-4.3994 1.9697-4.3994 4.3994 0 2.4297 1.9697 4.3994 4.3994 4.3994 1.203 0 2.2933-0.48289 3.0875-1.2654-0.20236-0.30133-0.37636-0.62331-0.51819-0.96209-0.61711 0.72929-1.5392 1.1923-2.5693 1.1923-1.858 0-3.3642-1.5062-3.3642-3.3642 0-1.858 1.5062-3.3642 3.3642-3.3642 1.858 0 3.3643 1.5062 3.3643 3.3642 0 1.9967 1.3301 3.6827 3.1526 4.2202l0.29336-0.993c-1.3937-0.41107-2.4108-1.7004-2.4108-3.2272z" fill="#f6af33" stroke-width=".15625"/>
 <path id="path3825" d="m13.882 12.354c1.2863 0 2.3291-1.0428 2.3291-2.3291 0-1.2863-1.0428-2.3291-2.3291-2.3291s-2.3291 1.0428-2.3291 2.3291c0 1.2863 1.0428 2.3291 2.3291 2.3291zm1.6e-5 -1.5527c0.42878 0 0.77636-0.34759 0.77636-0.77636 0-0.42878-0.34758-0.77637-0.77636-0.77637-0.42878 0-0.77636 0.34759-0.77636 0.77637 0 0.42877 0.34758 0.77636 0.77636 0.77636z" clip-rule="evenodd" fill="#fff" fill-rule="evenodd" stroke-width=".15625"/>
 <path id="path3827" d="m18.261 10.454c0.01516-0.15759 0.02219-0.31761 0.02031-0.47956-0.0017-0.16194-0.01234-0.32175-0.03109-0.47897l-1.0278 0.12434c0.01437 0.12022 0.0225 0.24242 0.02391 0.36627 0.0014 0.12384-0.0039 0.2462-0.01563 0.36673z" fill="#fff" stroke-width=".15625"/>
 <path id="path3829" d="m17.764 12.097c0.07437-0.13975 0.14203-0.28492 0.20234-0.43525 0.06031-0.15031 0.11172-0.302 0.15437-0.45445l-0.99703-0.27841c-0.03266 0.1166-0.07203 0.23258-0.11812 0.34753-0.04609 0.11496-0.09781 0.22597-0.15469 0.33285z" fill="#fff" stroke-width=".15625"/>
 <path id="path3831" d="m16.674 13.425c0.12234-0.10064 0.24031-0.20886 0.35359-0.32467 0.11328-0.1158 0.21875-0.23625 0.31656-0.36074l-0.81453-0.63881c-0.07484 0.0952-0.15562 0.18731-0.24219 0.27586-0.08656 0.0886-0.17688 0.17133-0.27031 0.24828z" fill="#fff" stroke-width=".15625"/>
 <path id="path3833" d="m15.162 14.237c0.15128-0.0468 0.30156-0.10212 0.45025-0.16632 0.14866-0.0642 0.29209-0.13565 0.42975-0.21372l-0.51147-0.90003c-0.10536 0.0597-0.21497 0.11431-0.32867 0.16342-0.1137 0.0491-0.22862 0.0914-0.34431 0.12718z" fill="#fff" stroke-width=".15625"/>
 <path id="path3835" d="m13.434 14.401c0.15755 0.0159 0.31752 0.0235 0.47947 0.0223 0.16195-1e-3 0.32181-0.0111 0.47909-0.0293l-0.12036-1.0282c-0.1203 0.0139-0.24253 0.0215-0.36638 0.0225-0.12384 9e-4 -0.24619-5e-3 -0.36666-0.017z" fill="#fff" stroke-width=".15625"/>
 <path id="path3837" d="m11.113 6.605c-0.12298 0.0997-0.24183 0.2071-0.35589 0.32207-0.11406 0.11499-0.22048 0.23468-0.31925 0.35844l0.80998 0.64472c0.07553-0.0947 0.15691-0.18619 0.24414-0.27411 0.08722-0.0879 0.17809-0.17001 0.27214-0.2463z" fill="#fff" stroke-width=".15625"/>
 <path id="path3839" d="m12.636 5.8034c-0.1518 0.045-0.30269 0.0987-0.45209 0.16126-0.14939 0.0625-0.29353 0.13236-0.43216 0.20888l0.50139 0.90571c0.10602-0.0585 0.21623-0.1119 0.33048-0.15973 0.11423-0.0478 0.22962-0.0889 0.34572-0.12331z" fill="#fff" stroke-width=".15625"/>
 <path id="path3841" d="m14.364 5.651c-0.15742-0.0171-0.31734-0.0259-0.4793-0.026-0.16197-5e-5 -0.32188 9e-3 -0.47931 0.0256l0.11244 1.0291c0.12039-0.013 0.24267-0.0197 0.36653-0.0196 0.12384 4e-5 0.24614 7e-3 0.36652 0.0199z" fill="#fff" stroke-width=".15625"/>
 <path id="path3843" d="m15.992 6.1635c-0.13891-0.076-0.28328-0.14527-0.43294-0.20724-0.14964-0.062-0.30074-0.11507-0.4527-0.15954l-0.28956 0.99392c0.11622 0.034 0.23177 0.0746 0.34619 0.122 0.11442 0.0474 0.22484 0.10037 0.33108 0.15848z" fill="#fff" stroke-width=".15625"/>
 <path id="path3845" d="m17.311 7.2679c-0.09937-0.12335-0.20625-0.24258-0.32078-0.35707-0.11453-0.11448-0.23391-0.22133-0.35734-0.32054l-0.64766 0.80764c0.09437 0.0759 0.18562 0.15757 0.27328 0.24512 0.0875 0.0876 0.16938 0.17872 0.24531 0.27305z" fill="#fff" stroke-width=".15625"/>
 <path id="path3847" d="m18.107 8.794c-0.04438-0.15197-0.0975-0.30306-0.15953-0.45268-0.06203-0.14964-0.13125-0.29404-0.20719-0.43294l-0.90766 0.498c0.05813 0.10622 0.11109 0.21664 0.15844 0.33106 0.0475 0.11444 0.08812 0.22997 0.12203 0.34619z" fill="#fff" stroke-width=".15625"/>
</svg>
