<svg width="128" height="128" viewBox="0 0 128 128" fill="none" xmlns="http://www.w3.org/2000/svg">
<path d="M0 0H128V128H0V0Z" fill="#1F2327"/>
<path d="M67.3124 64.1565C67.3124 48.6063 54.7064 36.0003 39.1562 36.0003C23.606 36.0003 11 48.6063 11 64.1565C11 79.7068 23.606 92.3127 39.1562 92.3127C46.8556 92.3127 53.8333 89.2223 58.9163 84.2142C57.6212 82.2856 56.5076 80.225 55.5999 78.0568C51.6504 82.7243 45.7493 85.6877 39.1562 85.6877C27.2648 85.6877 17.625 76.0479 17.625 64.1565C17.625 52.2652 27.2648 42.6253 39.1562 42.6253C51.0476 42.6253 60.6874 52.2652 60.6874 64.1565C60.6874 76.9352 69.2002 87.7256 80.8643 91.1661L82.7418 84.8109C73.8222 82.18 67.3124 73.9285 67.3124 64.1565Z" fill="#F6AF33"/>
<path fill-rule="evenodd" clip-rule="evenodd" d="M88.8437 79.0623C97.0762 79.0623 103.75 72.3886 103.75 64.1561C103.75 55.9236 97.0762 49.2499 88.8437 49.2499C80.6112 49.2499 73.9375 55.9236 73.9375 64.1561C73.9375 72.3886 80.6112 79.0623 88.8437 79.0623ZM88.8437 69.1249C91.5879 69.1249 93.8125 66.9003 93.8125 64.1561C93.8125 61.412 91.5879 59.1874 88.8437 59.1874C86.0996 59.1874 83.875 61.412 83.875 64.1561C83.875 66.9003 86.0996 69.1249 88.8437 69.1249Z" fill="white"/>
<path d="M116.867 66.9088C116.965 65.9001 117.01 64.8761 116.998 63.8396C116.986 62.8031 116.919 61.7803 116.798 60.7741L110.221 61.5699C110.313 62.3394 110.364 63.1215 110.373 63.9141C110.382 64.7067 110.348 65.4898 110.273 66.2611L116.867 66.9088Z" fill="white"/>
<path d="M113.69 77.4194C114.167 76.5249 114.6 75.5958 114.986 74.6338C115.371 73.6717 115.7 72.701 115.974 71.7252L109.593 69.9435C109.383 70.6896 109.132 71.432 108.837 72.1676C108.542 72.9033 108.211 73.6138 107.846 74.2978L113.69 77.4194Z" fill="white"/>
<path d="M106.713 85.9183C107.495 85.2743 108.251 84.5816 108.976 83.8405C109.7 83.0993 110.376 82.3284 111.002 81.5317L105.788 77.4433C105.309 78.0526 104.793 78.6421 104.239 79.2089C103.685 79.7756 103.107 80.3053 102.508 80.7978L106.713 85.9183Z" fill="white"/>
<path d="M97.0377 91.1148C98.006 90.8156 98.9678 90.4613 99.9194 90.0503C100.871 89.6394 101.788 89.1822 102.67 88.6826L99.3963 82.9223C98.7221 83.3044 98.0206 83.654 97.2929 83.9682C96.5652 84.2825 95.8297 84.5535 95.0893 84.7823L97.0377 91.1148Z" fill="white"/>
<path d="M85.9803 92.1691C86.9886 92.2708 88.0125 92.3193 89.049 92.3116C90.0855 92.3039 91.1085 92.2404 92.1152 92.1238L91.3448 85.5432C90.575 85.6323 89.7927 85.6809 89.0001 85.6868C88.2074 85.6927 87.4245 85.6556 86.6534 85.5778L85.9803 92.1691Z" fill="white"/>
<path d="M71.1255 42.272C70.3385 42.9104 69.5779 43.5975 68.8478 44.3334C68.1178 45.0692 67.4368 45.8352 66.8047 46.6274L71.9886 50.7535C72.472 50.1478 72.9928 49.562 73.551 48.9993C74.1093 48.4366 74.6909 47.9111 75.2928 47.4229L71.1255 42.272Z" fill="white"/>
<path d="M80.8697 37.1415C79.8982 37.4298 78.9324 37.7734 77.9763 38.1736C77.0201 38.5739 76.0977 39.0207 75.2105 39.5104L78.4194 45.3071C79.0978 44.9326 79.8033 44.5908 80.5344 44.2848C81.2656 43.9787 82.0041 43.716 82.747 43.4955L80.8697 37.1415Z" fill="white"/>
<path d="M91.9269 36.1661C90.9194 36.0566 89.896 36.0003 88.8594 35.9999C87.8229 35.9996 86.7994 36.0553 85.7919 36.1641L86.5114 42.7504C87.2819 42.6672 88.0646 42.6247 88.8572 42.6249C89.6499 42.6252 90.4325 42.6683 91.2029 42.752L91.9269 36.1661Z" fill="white"/>
<path d="M102.352 39.4461C101.463 38.9598 100.539 38.5164 99.5809 38.1198C98.6233 37.7232 97.6562 37.3834 96.6836 37.0987L94.8305 43.4598C95.5742 43.6775 96.3137 43.9374 97.046 44.2407C97.7784 44.544 98.4851 44.883 99.165 45.2549L102.352 39.4461Z" fill="white"/>
<path d="M110.789 46.5143C110.153 45.7249 109.469 44.9619 108.735 44.2292C108.002 43.4965 107.239 42.8126 106.449 42.1777L102.304 47.3466C102.908 47.8321 103.492 48.355 104.053 48.9153C104.613 49.4756 105.137 50.0592 105.623 50.6628L110.789 46.5143Z" fill="white"/>
<path d="M115.887 56.2813C115.602 55.3087 115.262 54.3417 114.866 53.384C114.469 52.4264 114.026 51.5023 113.539 50.6132L107.731 53.8004C108.103 54.4803 108.442 55.187 108.745 55.9193C109.048 56.6516 109.308 57.3911 109.526 58.1348L115.887 56.2813Z" fill="white"/>
</svg>
